<svg xmlns="http://www.w3.org/2000/svg" viewBox="0 0 24 24" fill="currentColor">
  <path d="M12 0.5C5.73 0.5 0.75 5.48 0.75 11.75c0 4.95 3.2 9.14 7.64 10.62.56.1.76-.24.76-.53 0-.26-.01-1.12-.02-2.03-3.11.68-3.77-1.5-3.77-1.5-.51-1.3-1.25-1.65-1.25-1.65-1.02-.7.08-.69.08-.69 1.12.08 1.71 1.15 1.71 1.15 1 1.72 2.62 1.22 3.26.93.1-.73.4-1.22.73-1.5-2.48-.28-5.09-1.24-5.09-5.52 0-1.22.43-2.22 1.14-3-.11-.28-.5-1.4.11-2.92 0 0 .93-.3 3.05 1.15A10.6 10.6 0 0112 6.84c.94.004 1.89.13 2.78.38 2.12-1.45 3.05-1.15 3.05-1.15.61 1.52.22 2.64.11 2.92.71.78 1.14 1.78 1.14 3 0 4.29-2.61 5.24-5.1 5.52.41.35.77 1.04.77 2.1 0 1.52-.014 2.74-.014 3.11 0 .29.2.63.77.53C20.05 20.89 23.25 16.7 23.25 11.75 23.25 5.48 18.27 0.5 12 0.5z"/>
</svg>